<?xml version="1.0" encoding="UTF-8"?>
<svg xmlns="http://www.w3.org/2000/svg" viewBox="0 0 512 512">
  <rect width="512" height="512" rx="256" fill="#25D366"/>
  <path d="M380.9 331.3c-5.3-2.6-31.3-15.5-36.2-17.3-4.9-1.9-8.4-2.6-11.9 2.6-3.5 5.1-13.6 17.3-16.7 20.9-3 3.5-6.1 3.9-11.4 1.3-30.9-15.4-51-27.6-71.3-62-5.4-9.1 5.4-8.5 15.5-28 1.7-3.5.9-6.5-.5-9.1-1.4-2.6-11.9-28.6-16.3-39.2-4.3-10.2-8.7-8.8-11.9-9-3.1-.2-6.7-.2-10.3-.2-3.6 0-9.4 1.3-14.3 6.6-4.9 5.3-18.7 18.3-18.7 44.7 0 26.4 19.2 51.9 21.9 55.5 2.8 3.5 38 58.4 92.2 80.4 54.2 22 54.2 14.7 64 13.8 9.8-1 31.8-13 36.3-25.6 4.5-12.6 4.5-23.4 3.2-25.6-1.2-2.2-4.9-3.5-10.2-6.1z" fill="#fff"/>
</svg>
